<svg id="visual" viewBox="0 0 900 600" width="900" height="600" xmlns="http://www.w3.org/2000/svg" xmlns:xlink="http://www.w3.org/1999/xlink" version="1.1"><rect x="0" y="0" width="900" height="600" fill="rgba(255,255,255,0)"></rect><defs><linearGradient id="grad1_0" x1="33.3%" y1="100%" x2="100%" y2="0%"><stop offset="20%" stop-color="#ffffff" stop-opacity="1"></stop><stop offset="80%" stop-color="#ffffff" stop-opacity="1"></stop></linearGradient></defs><defs><linearGradient id="grad2_0" x1="0%" y1="100%" x2="66.7%" y2="0%"><stop offset="20%" stop-color="#ffffff" stop-opacity="1"></stop><stop offset="80%" stop-color="#ffffff" stop-opacity="1"></stop></linearGradient></defs><g transform="translate(900, 600)"><path d="M-297.5 0C-292 -30.9 -286.6 -61.8 -274.9 -89.3C-263.1 -116.8 -245 -140.9 -227.3 -165.2C-209.7 -189.4 -192.6 -213.7 -170.5 -234.6C-148.3 -255.5 -121.2 -273 -91.9 -282.9C-62.7 -292.8 -31.3 -295.1 0 -297.5L0 0Z" fill="#409eff"></path></g><g transform="translate(0, 0)"><path d="M297.5 0C291.1 29.8 284.8 59.6 276.8 89.9C268.7 120.2 259 151 240.6 174.8C222.3 198.7 195.2 215.7 169.3 233C143.4 250.3 118.6 267.9 90.5 278.7C62.5 289.5 31.3 293.5 0 297.5L0 0Z" fill="#409eff"></path></g></svg>