<?xml version="1.0" standalone="no"?><!DOCTYPE svg PUBLIC "-//W3C//DTD SVG 1.1//EN" "http://www.w3.org/Graphics/SVG/1.1/DTD/svg11.dtd"><svg t="1686283951672" class="icon" viewBox="0 0 1024 1024" version="1.1" xmlns="http://www.w3.org/2000/svg" p-id="2449" xmlns:xlink="http://www.w3.org/1999/xlink" width="200" height="200"><path d="M798.1 473.5c-2.9-4.3-5.9-8-9.8-12L601 288c-26.5-24.5-66.2-24.5-92.7 0L320.9 461.4c-0.8 0.7-1.4 1.5-2.1 2.3-14.9 14-24.4 34.1-24.4 56.7v170.4c0 42.1 32.7 76.5 72.7 76.5h374.1c40 0 72.7-34.4 72.7-76.5V520.4c0-17.7-6.1-33.9-15.8-46.9z" fill="#FEE100" p-id="2450"></path><path d="M426.4 780.2H302.1c-55.5 0-100.6-47.6-100.6-106.1v-194c0-29.5 12.1-58 33.3-78.2 0.6-0.8 1.4-1.7 2.4-2.7l210.3-197.5c37.1-34.8 93-34.8 130.1 0l210.2 197.5c6 6.3 10 11.3 13.8 17 13.5 18.3 20.9 40.6 20.9 64v31.3c0 10.5-8.5 19-19 19s-19-8.5-19-19v-31.3c0-15.1-4.8-29.7-14-42.1-3.1-4.7-5.8-8.1-9.5-11.9L551.5 229.4c-22.6-21.2-55.4-21.2-78 0L261.7 428.8c-14.3 13.7-22.1 32.2-22.1 51.4v194c0 37.5 28.1 68 62.6 68h124.2c10.5 0 19 8.5 19 19s-8.5 19-19 19z" fill="#231815" p-id="2451"></path><path d="M799 763.1l-25.4-29.7c10.2-14.4 16.2-31.9 16.2-50.8 0-48.7-39.4-88.1-88.1-88.1-48.7 0-88.1 39.4-88.1 88.1s39.4 88.1 88.1 88.1c13.5 0 26.3-3.1 37.7-8.6l25.7 30c4.4 5.2 10.7 7.8 17 7.8 5.1 0 10.3-1.8 14.5-5.4 9.3-7.9 10.4-22 2.4-31.4z" fill="#FEE100" p-id="2452"></path><path d="M771.1 848.5c-15 0-29.3-6.5-39-18l-28.3-33c-15.8 5.7-32.3 8.6-49.2 8.6-80.9 0-146.7-65.8-146.7-146.7s65.8-146.7 146.7-146.7 146.7 65.8 146.7 146.7c0 25.4-6.5 50-18.9 71.9l27.7 32.3c8.9 10.4 13.3 23.7 12.2 37.4-1.1 13.7-7.4 26.1-17.8 35.1-9.3 8-21.1 12.4-33.4 12.4z m-56.8-97.3l46.7 54.5c2.5 3 6.2 4.7 10.1 4.7 2.2 0 5.6-0.6 8.6-3.2 2.7-2.3 4.4-5.6 4.6-9.1 0.3-3.5-0.8-7-3.2-9.7l-46.5-54.3 8.6-12.1c13.1-18.5 20-40.1 20-62.6 0-59.9-48.7-108.6-108.6-108.6-59.9 0-108.6 48.7-108.6 108.6 0 59.9 48.7 108.6 108.6 108.6 16.1 0 31.7-3.6 46.5-10.6l13.2-6.2z" fill="#231815" p-id="2453"></path><path d="M708.9 640c-8.5-30.8-36.8-53.4-70.3-53.4" fill="#DBDCDC" p-id="2454"></path><path d="M708.9 659.1c-8.3 0-16-5.5-18.3-13.9-6.5-23.3-27.8-39.5-52-39.5-10.5 0-19-8.5-19-19s8.5-19 19-19c41.2 0 77.7 27.7 88.7 67.4 2.8 10.1-3.1 20.6-13.2 23.4-1.8 0.3-3.5 0.6-5.2 0.6z" fill="#FF4D15" p-id="2455"></path></svg>